<svg id="Layer_1" data-name="Layer 1" xmlns="http://www.w3.org/2000/svg" viewBox="0 0 254 273.27"><defs><style>.cls-1{fill:#5eaee0;}.cls-2{fill:#3d6f9b;}.cls-3{fill:#2a5066;}</style></defs><title>Main Logo</title><path class="cls-1" d="M122.82,120.74c0,1.36,0,2.53,0,3.7-.14,12.47.07,24.95-.52,37.4-.47,10-5.84,17.12-15.27,20.58-8.26,3-16.12,1.93-23-4-7.36-6.32-10.36-17.25-7.18-26.17,3-8.35,12.81-15.52,22-15.36,3.53.06,7,1.59,10.53,2.54a22.2,22.2,0,0,1,3.18,1.52V121.12c-4.68-1-9.51-1.5-14-3C71.87,109.46,54.21,92,47.41,64.39c-1.19-4.83-1.3-10-1.59-15C45.61,45.73,47.57,44,51.2,44H183.39c4.51,0,6,1.56,6,6.09,0,18-6.88,33.28-18.57,46.79C158.59,111,139.19,119.36,122.82,120.74Zm-10.27-10.45V54.16H56C59.23,90.1,89.19,109.25,112.55,110.29Zm10.41.13c25.1-1.7,53-22.07,56.21-56.19H123ZM85.57,160.5a13.44,13.44,0,0,0,13.6,13.41c9,.1,13.42-7.52,13.48-14.18.06-6.83-6.83-13.09-14-12.95A13.71,13.71,0,0,0,85.57,160.5Z"/><path class="cls-1" d="M137.55,157.83c-20.8-13.82-.31-.21-21.1-14-3.69-2.69-.42-4.08-2.18-5.66-3.08-2.78-.32.27,1.8-2.37,2.48-3.08-.56-5.27,3-2.95,1.18,1.19,5.93,2.41,14,7.88,5.9,4,11.17,5.61,18,3.46,5.57-1.75,11.48-2.45,17.16-3.59-.05-.63,0-.77-.08-.84a10.31,10.31,0,0,0-.65-.83c-6-6.92-8.72-14.8-6.89-24,3.42-17.2,19.2-27,35.4-21.93,12.91,4,20.65,14.16,20.46,26.77-.21,13.06-8.38,23.86-21.11,27.05-10.48,2.64-21.11,4.67-31.68,6.95-2.39.52-4.79,1-8.08,1.64,1.83,1.34,2.89,2.2,4,2.94,3.29,2.14,6.65,4.16,9.9,6.35,19.1,12.88,23.21,33.64,15,50.32-4.94,10-12.21,17.42-23,20.9-21.25,6.83-46.18-7.16-50.31-27.94-1.61-8.09-1.85-16,1.56-23.71,5.36-12.06,13.74-20.87,27.72-24.3C139.07,158.91,138.32,158.34,137.55,157.83Zm6.5,13.68c-11.56,2.46-25.33,15.75-21.49,32.15,3.49,14.94,17.22,24.5,32.11,21.44a26.86,26.86,0,0,0,21.16-32.17C174,180.84,160.09,168.09,144.05,171.51ZM191,135.85c8.84-1.66,15-10.38,13.32-18.83a16.66,16.66,0,0,0-19.93-13.09c-8.34,1.72-13.76,10.43-12,19.33C174.18,130,180.63,137.79,191,135.85Z"/><path class="cls-2" d="M118.66,116.58c0,1.36,0,2.53,0,3.7-.14,12.47.07,24.95-.52,37.4-.47,10-5.83,17.12-15.27,20.58-8.26,3-16.12,1.93-23-4-7.37-6.32-10.37-17.25-7.19-26.17,3-8.35,12.81-15.52,22-15.36,3.53.06,7,1.59,10.53,2.54a21.71,21.71,0,0,1,3.18,1.52V117c-4.68-1-9.51-1.5-14-3C67.71,105.3,50.05,87.81,43.25,60.24c-1.19-4.84-1.3-10-1.59-15-.21-3.67,1.75-5.43,5.39-5.43q66.09,0,132.19,0c4.51,0,6,1.56,6,6.09,0,18.05-6.88,33.28-18.57,46.79C154.43,106.87,135,115.2,118.66,116.58Zm-10.27-10.45V50H51.83C55.07,85.94,85,105.09,108.39,106.13Zm10.41.13c25.1-1.7,53-22.07,56.21-56.19H118.8ZM81.41,156.34A13.46,13.46,0,0,0,95,169.76c9,.09,13.42-7.53,13.48-14.19.06-6.83-6.83-13.09-13.95-12.95A13.71,13.71,0,0,0,81.41,156.34Z"/><path class="cls-2" d="M133.39,153.67c-20.8-13.82-.31-.21-21.1-14-3.69-2.69-.42-4.08-2.18-5.66-3.08-2.78-.32.27,1.8-2.37,2.48-3.08-.7-6.22,2.85-3.9,1.18,1.2,6.07,3.36,14.16,8.83,5.9,4,11.17,5.61,18,3.46,5.57-1.75,11.48-2.44,17.16-3.59a4,4,0,0,0-.07-.84c-.21-.29-.43-.56-.66-.82-6-6.93-8.72-14.81-6.89-24,3.42-17.19,19.2-27,35.4-21.93,12.91,4,20.65,14.16,20.46,26.77-.21,13.06-8.38,23.86-21.11,27.06-10.48,2.63-21.11,4.66-31.68,6.94-2.39.52-4.79,1-8.08,1.64,1.83,1.34,2.89,2.2,4,2.94,3.29,2.14,6.65,4.16,9.9,6.35,19.1,12.88,23.21,33.64,15,50.32-4.94,10-12.21,17.42-23,20.9-21.25,6.84-46.17-7.16-50.31-27.94-1.61-8.09-1.85-16,1.56-23.71,5.36-12.06,13.74-20.87,27.72-24.3C134.91,154.75,134.16,154.18,133.39,153.67Zm6.5,13.68c-11.56,2.46-25.33,15.75-21.49,32.15,3.49,14.95,17.22,24.5,32.11,21.44a26.85,26.85,0,0,0,21.16-32.17C169.84,176.68,155.93,163.93,139.89,167.35Zm47-35.66c8.84-1.66,15-10.38,13.32-18.83a16.67,16.67,0,0,0-19.93-13.09c-8.34,1.72-13.76,10.43-12,19.33C170,125.85,176.47,133.63,186.84,131.69Z"/><path class="cls-3" d="M114.5,112.42c0,1.36,0,2.53,0,3.7-.14,12.47.07,24.95-.52,37.4-.47,10-5.83,17.12-15.27,20.58-8.26,3-16.12,1.93-23-4-7.37-6.32-10.37-17.25-7.19-26.17,3-8.35,12.81-15.52,22-15.36,3.53.06,7,1.59,10.53,2.55a20.57,20.57,0,0,1,3.18,1.51V112.8c-4.68-1-9.51-1.5-14-3-26.68-8.69-44.34-26.18-51.14-53.75-1.19-4.84-1.3-10-1.59-15-.21-3.67,1.76-5.43,5.39-5.43H175.08c4.51,0,6,1.56,6,6.09,0,18-6.88,33.28-18.57,46.79C150.27,102.71,130.88,111,114.5,112.42ZM104.23,102V45.84H47.67C50.92,81.79,80.87,100.93,104.23,102Zm10.41.13c25.1-1.7,53-22.07,56.21-56.19H114.64ZM77.25,152.18a13.46,13.46,0,0,0,13.6,13.42c9,.09,13.42-7.53,13.48-14.19.06-6.83-6.83-13.09-14-12.95A13.71,13.71,0,0,0,77.25,152.18Z"/><path class="cls-3" d="M129.23,149.51c-20.8-13.82-.31-.2-21.1-14-1.09-1.19-2.28-1.19-2.88-3.57,0,0,0-3,1.19-4.16,2.48-3.08,5.21-2.09,5.94-2.38,2.24.84,4.29,1.54,12.38,7,5.9,4,11.17,5.61,18,3.46,5.57-1.75,11.48-2.44,17.16-3.59a4,4,0,0,0-.07-.84c-.21-.29-.43-.56-.66-.82-6-6.93-8.72-14.81-6.89-24,3.42-17.19,19.2-27,35.41-21.93,12.9,4,20.65,14.16,20.45,26.77-.2,13.06-8.38,23.86-21.11,27.06-10.48,2.63-21.11,4.66-31.68,6.94-2.39.52-4.79,1-8.08,1.64,1.83,1.35,2.89,2.2,4,2.94,3.29,2.14,6.65,4.16,9.9,6.36,19.1,12.87,23.21,33.64,15,50.31-4.94,10-12.21,17.42-23,20.9C132,234.4,107,220.4,102.9,199.62c-1.61-8.09-1.85-16,1.56-23.71,5.36-12.06,13.74-20.87,27.72-24.3C130.75,150.59,130,150,129.23,149.51Zm6.5,13.68c-11.56,2.46-25.33,15.75-21.49,32.15,3.5,14.95,17.22,24.5,32.11,21.44a26.85,26.85,0,0,0,21.16-32.17C165.68,172.52,151.77,159.77,135.73,163.19Zm47-35.66c8.84-1.66,15-10.37,13.32-18.83a16.67,16.67,0,0,0-19.93-13.09c-8.34,1.72-13.76,10.43-12,19.34C165.86,121.69,172.31,129.47,182.68,127.53Z"/></svg>